<svg xmlns="http://www.w3.org/2000/svg" width="444" height="511" fill="none" viewBox="0 0 444 511"><g clip-path="url(#clip0_430_11718)"><path stroke="url(#paint0_linear_430_11718)" stroke-linecap="round" stroke-linejoin="round" stroke-miterlimit="10" stroke-width="3" d="M187.8 352L229.1 470.2"/><path stroke="url(#paint1_linear_430_11718)" stroke-linecap="round" stroke-linejoin="round" stroke-miterlimit="10" stroke-width="3" d="M40.7002 354.6L165.1 348.4"/><path stroke="url(#paint2_linear_430_11718)" stroke-linecap="round" stroke-linejoin="round" stroke-miterlimit="10" stroke-width="3" d="M212 28.4001L48.5 126.3"/><path stroke="url(#paint3_linear_430_11718)" stroke-linecap="round" stroke-linejoin="round" stroke-miterlimit="10" stroke-width="3" d="M237.9 151.2L390.4 138.8"/><path stroke="url(#paint4_linear_430_11718)" stroke-linecap="round" stroke-linejoin="round" stroke-miterlimit="10" stroke-width="3" d="M85.5 127.9L223.9 152.8L216.9 42.7"/><path stroke="url(#paint5_linear_430_11718)" stroke-linecap="round" stroke-linejoin="round" stroke-miterlimit="10" stroke-width="3" d="M220.4 25.3L398.1 124.1"/><path stroke="url(#paint6_linear_430_11718)" stroke-linecap="round" stroke-linejoin="round" stroke-miterlimit="10" stroke-width="3" d="M134.9 232.5L213.1 162.1"/><path stroke="url(#paint7_linear_430_11718)" stroke-linecap="round" stroke-linejoin="round" stroke-miterlimit="10" stroke-width="3" d="M188.3 345.3L298.2 296"/><path stroke="url(#paint8_linear_430_11718)" stroke-linecap="round" stroke-linejoin="round" stroke-miterlimit="10" stroke-width="3" d="M228.6 463.2L307.5 302.1"/><path stroke="url(#paint9_linear_430_11718)" stroke-linecap="round" stroke-linejoin="round" stroke-miterlimit="10" stroke-width="3" d="M144.9 239.5L306.8 278.2"/><path stroke="url(#paint10_linear_430_11718)" stroke-linecap="round" stroke-linejoin="round" stroke-miterlimit="10" stroke-width="3" d="M42 331.6L122.5 246.5"/><path stroke="url(#paint11_linear_430_11718)" stroke-linecap="round" stroke-linejoin="round" stroke-miterlimit="10" stroke-width="3" d="M176.7 338.6L134.9 246.5"/><path stroke="url(#paint12_linear_430_11718)" stroke-linecap="round" stroke-linejoin="round" stroke-miterlimit="10" stroke-width="3" d="M329.5 294.7L392.7 340.9"/><path stroke="url(#paint13_linear_430_11718)" stroke-linecap="round" stroke-linejoin="round" stroke-miterlimit="10" stroke-width="3" d="M235.5 166.7L312.2 275.9"/><path stroke="url(#paint14_linear_430_11718)" stroke-linecap="round" stroke-linejoin="round" stroke-miterlimit="10" stroke-width="3" d="M53.7004 156.8L31.9004 325.4"/><path stroke="url(#paint15_linear_430_11718)" stroke-linecap="round" stroke-linejoin="round" stroke-miterlimit="10" stroke-width="3" d="M417.5 150.5L419.8 344"/><path stroke="url(#paint16_linear_430_11718)" stroke-linecap="round" stroke-linejoin="round" stroke-miterlimit="10" stroke-width="3" d="M324.6 275.9L394.2 145.8"/><path stroke="url(#paint17_linear_430_11718)" stroke-linecap="round" stroke-linejoin="round" stroke-miterlimit="10" stroke-width="3" d="M245.6 472.5L395.8 368.8"/><path stroke="url(#paint18_linear_430_11718)" stroke-linecap="round" stroke-linejoin="round" stroke-miterlimit="10" stroke-width="3" d="M128.7 226.3L76.0996 147.4"/><path stroke="url(#paint19_linear_430_11718)" stroke-linecap="round" stroke-linejoin="round" stroke-miterlimit="10" stroke-width="3" d="M213.9 460.9L35.7998 355.6"/><path fill="#8F3C96" d="M228.9 152L250.5 140.1V164.4L228.6 176.5C228.6 176.5 228.9 151.5 228.9 152Z"/><path fill="#A159A3" d="M208.1 140L229.8 127.7L250.5 140.1L228.9 152L208.1 140Z"/><path fill="#772A87" d="M208.1 140L228.9 152L228.6 176.5L208.2 164.5L208.1 140Z"/><path fill="#138DAE" d="M179 346.3L201.2 334.1V359L178.8 371.4C178.7 371.5 179 345.8 179 346.3Z"/><path fill="#34B4D7" d="M157.6 334L180 321.4L201.2 334.2L179 346.3L157.6 334Z"/><path fill="#219AC5" d="M157.6 334L179 346.3L178.7 371.5L157.8 359.2L157.6 334Z"/><path fill="#BABF33" d="M219.1 34.9001L250.2 17.8V52.7001L218.7 70.1C218.8 70.1 219.1 34.1001 219.1 34.9001Z"/><path fill="#C8D92B" d="M189.2 17.6L220.5 0L250.2 17.8L219.1 34.9L189.2 17.6Z"/><path fill="#C2D02E" d="M189.2 17.6001L219.1 34.9001L218.8 70.1001L189.4 52.9001L189.2 17.6001Z"/><path fill="#138DAE" d="M407.299 132.4L438.399 115.3V150.2L406.899 167.6C406.899 167.7 407.299 131.7 407.299 132.4Z"/><path fill="#34B4D7" d="M377.3 115.2L408.6 97.5L438.3 115.4L407.3 132.4L377.3 115.2Z"/><path fill="#219AC5" d="M377.3 115.2L407.3 132.4L406.9 167.7L377.5 150.4L377.3 115.2Z"/><path fill="#8F3C96" d="M412.7 356.9L443.8 339.8V374.7L412.3 392.1C412.3 392.2 412.7 356.2 412.7 356.9Z"/><path fill="#A159A3" d="M382.7 339.7L414 322.1L443.8 339.9L412.7 356.9L382.7 339.7Z"/><path fill="#772A87" d="M382.7 339.7L412.7 356.9L412.3 392.2L382.9 374.9L382.7 339.7Z"/><path fill="#8F3C96" d="M29.8996 343.8L60.9996 326.7V361.6L29.5996 379C29.5996 379 29.8996 343 29.8996 343.8Z"/><path fill="#A159A3" d="M0 326.5L31.3 308.9L61 326.7L29.9 343.8L0 326.5Z"/><path fill="#772A87" d="M0 326.5L29.9 343.8L29.6 379L0.2 361.8L0 326.5Z"/><path fill="#BABF33" d="M225.3 475.4L256.4 458.3V493.2L225 510.6C225 510.6 225.3 474.6 225.3 475.4Z"/><path fill="#C8D92B" d="M195.4 458.1L226.7 440.5L256.4 458.3L225.3 475.4L195.4 458.1Z"/><path fill="#C2D02E" d="M195.4 458.1L225.3 475.4L225 510.6L195.6 493.4L195.4 458.1Z"/><path fill="#E9AF20" d="M130.3 235.4L152.4 223.3V248.1L130 260.5C130 260.5 130.3 234.9 130.3 235.4Z"/><path fill="#F6DD03" d="M109 223.1L131.2 210.6L152.4 223.3L130.3 235.4L109 223.1Z"/><path fill="#F9BC1E" d="M109 223.1L130.3 235.4L130 260.5L109.1 248.2L109 223.1Z"/><path fill="#F8A120" d="M316.5 284.6L338.6 272.5V297.3L316.2 309.7C316.2 309.7 316.5 284 316.5 284.6Z"/><path fill="#F6AF1A" d="M295.2 272.3L317.4 259.8L338.6 272.4L316.5 284.6L295.2 272.3Z"/><path fill="#F29020" d="M295.2 272.3L316.5 284.6L316.2 309.7L295.3 297.4L295.2 272.3Z"/><path fill="#F8A120" d="M55.2008 134L89.8008 115V153.8L54.8008 173.2C54.8008 173.2 55.2008 133.2 55.2008 134Z"/><path fill="#F6AF1A" d="M21.9004 114.8L56.7004 95.2L89.8004 115L55.2004 134L21.9004 114.8Z"/><path fill="#F29020" d="M21.9004 114.8L55.2004 134L54.8004 173.2L22.1004 154L21.9004 114.8Z"/></g><defs><linearGradient id="paint0_linear_430_11718" x1="186.286" x2="230.577" y1="411.1" y2="411.1" gradientUnits="userSpaceOnUse"><stop stop-color="#F8B731"/><stop offset="1" stop-color="#F39B35"/></linearGradient><linearGradient id="paint1_linear_430_11718" x1="39.19" x2="166.577" y1="351.487" y2="351.487" gradientUnits="userSpaceOnUse"><stop stop-color="#F8B731"/><stop offset="1" stop-color="#F39B35"/></linearGradient><linearGradient id="paint2_linear_430_11718" x1="129.471" x2="131.011" y1="76.058" y2="78.632" gradientUnits="userSpaceOnUse"><stop stop-color="#F8B731"/><stop offset="1" stop-color="#F39B35"/></linearGradient><linearGradient id="paint3_linear_430_11718" x1="236.351" x2="391.867" y1="145.036" y2="145.036" gradientUnits="userSpaceOnUse"><stop stop-color="#F8B731"/><stop offset="1" stop-color="#F39B35"/></linearGradient><linearGradient id="paint4_linear_430_11718" x1="84.002" x2="225.415" y1="97.74" y2="97.74" gradientUnits="userSpaceOnUse"><stop stop-color="#F8B731"/><stop offset="1" stop-color="#F39B35"/></linearGradient><linearGradient id="paint5_linear_430_11718" x1="303.32" x2="315.145" y1="83.399" y2="65.982" gradientUnits="userSpaceOnUse"><stop stop-color="#F8B731"/><stop offset="1" stop-color="#F39B35"/></linearGradient><linearGradient id="paint6_linear_430_11718" x1="133.384" x2="214.577" y1="197.294" y2="197.294" gradientUnits="userSpaceOnUse"><stop stop-color="#F8B731"/><stop offset="1" stop-color="#F39B35"/></linearGradient><linearGradient id="paint7_linear_430_11718" x1="198.226" x2="288.314" y1="359.184" y2="282.124" gradientUnits="userSpaceOnUse"><stop stop-color="#F8B731"/><stop offset="1" stop-color="#F39B35"/></linearGradient><linearGradient id="paint8_linear_430_11718" x1="227.06" x2="308.978" y1="382.643" y2="382.643" gradientUnits="userSpaceOnUse"><stop stop-color="#F8B731"/><stop offset="1" stop-color="#F39B35"/></linearGradient><linearGradient id="paint9_linear_430_11718" x1="143.448" x2="308.254" y1="258.842" y2="258.842" gradientUnits="userSpaceOnUse"><stop stop-color="#F8B731"/><stop offset="1" stop-color="#F39B35"/></linearGradient><linearGradient id="paint10_linear_430_11718" x1="40.48" x2="123.996" y1="289.035" y2="289.035" gradientUnits="userSpaceOnUse"><stop stop-color="#F8B731"/><stop offset="1" stop-color="#F39B35"/></linearGradient><linearGradient id="paint11_linear_430_11718" x1="133.384" x2="178.19" y1="292.519" y2="292.519" gradientUnits="userSpaceOnUse"><stop stop-color="#F8B731"/><stop offset="1" stop-color="#F39B35"/></linearGradient><linearGradient id="paint12_linear_430_11718" x1="358.02" x2="364.216" y1="289.979" y2="345.545" gradientUnits="userSpaceOnUse"><stop stop-color="#F8B731"/><stop offset="1" stop-color="#F39B35"/></linearGradient><linearGradient id="paint13_linear_430_11718" x1="234.028" x2="313.673" y1="221.293" y2="221.293" gradientUnits="userSpaceOnUse"><stop stop-color="#F8B731"/><stop offset="1" stop-color="#F39B35"/></linearGradient><linearGradient id="paint14_linear_430_11718" x1="30.416" x2="55.236" y1="241.097" y2="241.097" gradientUnits="userSpaceOnUse"><stop stop-color="#F8B731"/><stop offset="1" stop-color="#F39B35"/></linearGradient><linearGradient id="paint15_linear_430_11718" x1="415.964" x2="421.286" y1="247.229" y2="247.229" gradientUnits="userSpaceOnUse"><stop stop-color="#F8B731"/><stop offset="1" stop-color="#F39B35"/></linearGradient><linearGradient id="paint16_linear_430_11718" x1="323.06" x2="395.737" y1="210.842" y2="210.842" gradientUnits="userSpaceOnUse"><stop stop-color="#F8B731"/><stop offset="1" stop-color="#F39B35"/></linearGradient><linearGradient id="paint17_linear_430_11718" x1="244.093" x2="397.286" y1="420.648" y2="420.648" gradientUnits="userSpaceOnUse"><stop stop-color="#F8B731"/><stop offset="1" stop-color="#F39B35"/></linearGradient><linearGradient id="paint18_linear_430_11718" x1="102.403" x2="102.403" y1="227.826" y2="145.887" gradientUnits="userSpaceOnUse"><stop stop-color="#F8B731"/><stop offset="1" stop-color="#F39B35"/></linearGradient><linearGradient id="paint19_linear_430_11718" x1="124.819" x2="124.819" y1="462.406" y2="354.116" gradientUnits="userSpaceOnUse"><stop stop-color="#F8B731"/><stop offset="1" stop-color="#F39B35"/></linearGradient><clipPath id="clip0_430_11718"><rect width="443.8" height="510.6" fill="#fff"/></clipPath></defs></svg>